<svg xmlns="http://www.w3.org/2000/svg" xml:space="preserve" viewBox="0 0 1240 100"><path fill="#FFD336" d="M133.9 13.9c0-.1-.7-.2-.8-.2s-.8-.1-.8-.2c.3.8-.2 1.4-.5 2.1-.4.8-.3 1.5.4 2.1.1.1.6.2.8.2s.7 0 .8.2c-.6-.6-.7-1.3-.4-2.1.3-.6.9-1.3.5-2.1m160.8 7.6c.3.3 1.3.5 1.6.6.4.1 1.3.2 1.6.6-1.3-1.4-1.6-3.1-1.1-4.6.5-1.4 1.3-2.7.5-4.5-.1-.2-1.4-.5-1.6-.6s-1.5-.4-1.6-.6c.8 1.8 0 3.1-.5 4.5-.5 1.6-.2 3.2 1.1 4.6"/><path fill="#3CA8F1" d="M214.2 25.3c.3.3 1.3.5 1.6.6.4.1 1.3.2 1.6.6-1.3-1.4-1.6-3.1-1.1-4.6.5-1.4 1.3-2.7.5-4.5-.1-.2-1.4-.5-1.6-.6s-1.5-.4-1.6-.6c.8 1.8 0 3.1-.5 4.5-.6 1.5-.3 3.2 1.1 4.6"/><path fill="#FFD336" d="M188.2 63.3c.3.3 1.3.5 1.7.6s1.4.3 1.7.6c-1.4-1.5-1.7-3.2-1.2-4.8.5-1.5 1.4-2.8.5-4.7-.1-.2-1.5-.5-1.7-.6s-1.6-.4-1.7-.6c.9 1.9 0 3.2-.5 4.7-.5 1.6-.1 3.4 1.2 4.8"/><path fill="#FF639E" d="M22.4 50.7c.3.2 1.1.1 1.4.1s1.1-.1 1.4.1c-1.1-.8-1.5-1.9-1.1-3.2.3-1.2 1-2.3.2-3.5-.1-.1-1.2-.1-1.4-.1s-1.3.1-1.4-.1c.8 1.1.1 2.3-.2 3.5-.4 1.3 0 2.5 1.1 3.2"/><path fill="#00DDC8" d="M143.8 42.8c-.2.1-.9-.1-1.2-.1s-.9-.2-1.2-.1c-1.3.7-1.9 2.2-1.5 3.6 0 .1 1.1.1 1.2.1s1.2 0 1.2.1c-.5-1.4.1-3 1.5-3.6"/><path fill="#F42B75" d="M26.4 8.5c-.1-1.8-2.9-1.7-2.8.1s2.9 1.7 2.8-.1"/><path fill="#FFD336" d="M349.4 7.1c-.1-1.8-2.9-1.7-2.8.1s2.9 1.7 2.8-.1"/><path fill="#3CA8F1" d="M350.8 37.2c-.1-1.8-2.9-1.7-2.8.1 0 1.8 2.8 1.7 2.8-.1m-22.9-.4c.1 1.8 2.9 1.7 2.8-.1s-2.9-1.7-2.8.1"/><path fill="#F42B75" d="M388 46.6c.1 1.2 1.9 1.1 1.9-.1-.1-1.2-1.9-1.1-1.9.1m112-17c.1 1.2 1.9 1.1 1.9-.1-.1-1.2-1.9-1.1-1.9.1M369.5 9.1c.1 1.2 1.9 1.1 1.9-.1-.1-1.2-2-1.1-1.9.1"/><path fill="#FFD336" d="M691.1 11.8c.1 1.2 1.9 1.1 1.9-.1-.1-1.2-2-1.1-1.9.1"/><path fill="#3CA8F1" d="M312.3 0H310c.5.7 1.7.7 2.3 0M116.9 86.9c.1 1.8 2.9 1.7 2.8-.1s-2.9-1.7-2.8.1m303.5-64.7c.1 1.8 2.9 1.7 2.8-.1s-2.9-1.7-2.8.1m61-12c.1 1.8 2.9 1.7 2.8-.1s-2.9-1.7-2.8.1M230.7 44.1c.1 1.2 1.9 1.1 1.9-.1-.1-1.2-2-1.1-1.9.1m367-36c.1 1.2 1.9 1.1 1.9-.1-.1-1.2-2-1.1-1.9.1"/><path fill="#F42B75" d="M245.3 52.6c.1 1.2 1.9 1.1 1.9-.1-.1-1.2-2-1.1-1.9.1m54.6-10.5c.1 1.2 1.9 1.1 1.9-.1-.1-1.2-2-1.1-1.9.1"/><path fill="#FF639E" d="M255.7 61.8c.1 1.2 1.9 1.1 1.9-.1s-1.9-1.1-1.9.1"/><path fill="#FFD336" d="M285.2 15.1c.1 1.2 1.9 1.1 1.9-.1-.1-1.2-2-1.1-1.9.1"/><path fill="#FF639E" d="M194.5 12.9c.1 1.2 1.9 1.1 1.9-.1-.1-1.2-2-1.1-1.9.1"/><path fill="#F42B75" d="M68.7 37.4c.1 1.2 1.9 1.1 1.9-.1-.1-1.2-2-1.1-1.9.1"/><path fill="#3CA8F1" d="m172.7 18.2-.6-.9-.4 1-1.1.3.9.7-.1 1.2 1-.6 1.1.4-.3-1.1.7-.9z"/><path fill="#00DDC8" d="m328.7 64-1.1-1.6-.6 1.8-1.9.6 1.6 1.1-.1 2 1.6-1.1 1.8.6-.6-1.8 1.2-1.6zM122 63.1l.5 1.2.6-1.2 1.4-.1-.9-1 .3-1.3-1.3.6-1.1-.7.1 1.3-1 .9zM0 79.9l1 .2.6 1.3.7-1.3 1.4-.1-.9-1 .3-1.4-1.3.5-1.3-.7.2 1.4-.7.7z"/><path fill="#FF639E" d="m103.3 14.5 1.1 2 1-2 2.2-.4-1.6-1.6.3-2.3-2 1.1-2.1-1 .5 2.3-1.7 1.6z"/><path fill="#00DDC8" d="M53 1.9c.1-.4.2-.7.3-1l.3-.9h-.8c0 .1.1.2.1.3.1.5.2 1 .1 1.6m-3.1 2.3c0 .2-.1.3-.2.5 0-.1.1-.1.1-.2-.1.6 0 1.2.6 1.9 1.2 1.4 2.6 2.6 3.9 3.8-.3-.2 1.1-2.5.8-2.7-1-.9-2-1.8-2.9-2.7-.4-.4-.8-.8-1.1-1.2-.4-.5-.6-1-.6-1.6-.2.7-.4 1.4-.6 2.2"/><path fill="#00CCB3" d="M52.9.3c-.6.3-1.3.4-1.8.9-.6.6-.8 1.7-1 2.4-.1.3-.2.4-.2.6.2-.7.4-1.5.7-2.2 0 .6.2 1.1.6 1.6.3-.1.6-.2.9-.4.5-.3.8-.7 1-1.2 0-.7-.1-1.2-.2-1.7"/><path fill="#F42B75" d="M94.2 51c1.1.1 2-.4 2.4-1.4.1-.2-.1-.9-.2-1.1 0-.3-.3-.9-.2-1.1-.4 1-1.3 1.5-2.4 1.4-1-.1-2-.4-2.8.4-.1.1.1 1 .2 1.1 0 .1.3 1 .2 1.1.8-.8 1.8-.5 2.8-.4"/><path fill="#00DDC8" d="M157.7 71.6c1.3-.7 2.8-1.1 3.2-2.7 0-.2-.9-1.1-1.1-1.2-.1-.2-1.1-1-1.1-1.2-.3 1.6-1.9 2-3.2 2.7-1.4.8-2.1 2-1.8 3.7.1.4.8 1 1.1 1.2.2.3 1 .8 1.1 1.2-.3-1.6.4-2.9 1.8-3.7"/><path fill="#FF639E" d="M58 76.5c.3-.1 1.2.3 1.6.4s1.2.5 1.6.3c1.9-.6 3-2.5 2.7-4.5 0-.1-1.4-.3-1.6-.4-.1 0-1.5-.2-1.6-.3.3 2-.9 3.9-2.7 4.5m189.9-62.2c.2-1.8-2.6-2.1-2.8-.3s2.5 2.1 2.8.3"/><path fill="#F42B75" d="M39.6 100h1.9c-.6-.4-1.4-.4-1.9 0m6.5-37.5c-.2 1.8 2.6 2.1 2.8.3s-2.6-2.1-2.8-.3"/><path fill="#FF639E" d="m90.2 80.3-.7-1.7-.9 1.6-1.8.2 1.2 1.3-.4 1.8 1.7-.7 1.5.9-.2-1.8 1.4-1.2z"/><path fill="#FFD336" d="M266.4 36c-.1-.2-1.2-.3-1.4-.3s-1.3-.1-1.4-.3c.6 1.3-.3 2.3-.8 3.4-.6 1.2-.4 2.5.6 3.4.2.2 1.1.2 1.4.3s1.1.1 1.4.3c-1-.9-1.2-2.2-.6-3.4.6-1.1 1.4-2.1.8-3.4m538.5-11.1c0-.1-.7-.2-.8-.2s-.8-.1-.8-.2c.3.8-.2 1.4-.5 2.1-.4.8-.3 1.5.4 2.1.1.1.6.2.8.2s.7 0 .8.2c-.6-.6-.7-1.3-.4-2.1.3-.6.9-1.3.5-2.1m313.9-23.8c.1-.1.6-.1.8-.2.2 0 .7-.1.8-.2.2-.2.4-.5.5-.8h-1.6c0 .5-.1.9-.5 1.2m-163.1 0c.5 1.6.2 3.2-1.1 4.6.3-.3 1.3-.4 1.6-.6.4-.1 1.3-.3 1.6-.6 1.3-1.4 1.6-3 1.1-4.5h-3.7c.2.3.4.7.5 1.1"/><path fill="#3CA8F1" d="M1036.4 0c-.3.1-.6.2-.6.3-.8 1.8 0 3.1.5 4.5.5 1.6.2 3.2-1.1 4.6.3-.3 1.3-.4 1.6-.6.4-.1 1.3-.3 1.6-.6 1.3-1.4 1.7-3.1 1.1-4.6-.4-1.2-1-2.3-.8-3.6z"/><path fill="#FFD336" d="M1062.6 46.9c.4-.1 1.4-.3 1.7-.6 1.4-1.5 1.7-3.2 1.2-4.8-.5-1.5-1.4-2.8-.5-4.7-.1.2-1.5.5-1.7.6s-1.6.4-1.7.6c-.9 1.9 0 3.2.5 4.7.5 1.6.2 3.4-1.2 4.8.3-.3 1.3-.4 1.7-.6"/><path fill="#FF639E" d="M1231 27c-.1.1-1.2 0-1.4.1-.2 0-1.3-.1-1.4.1-.8 1.1-.1 2.3.2 3.5.4 1.3 0 2.5-1.1 3.2.3-.2 1.1 0 1.4-.1.3 0 1.1.1 1.4-.1 1.1-.8 1.5-1.9 1.1-3.2-.3-1.2-.9-2.3-.2-3.5"/><path fill="#00DDC8" d="M1111.5 29.3c.1 0 1.2 0 1.2-.1.5-1.4-.2-2.9-1.5-3.6-.3-.1-.9.1-1.2.1-.2 0-1 .2-1.2.1 1.3.7 1.9 2.2 1.5 3.6 0-.1 1.1-.1 1.2-.1"/><path fill="#3CA8F1" d="M901.8 20.2c-.1 1.8 2.7 1.9 2.8.1s-2.7-1.9-2.8-.1m22.9-.4c.1-1.8-2.7-1.9-2.8-.1s2.7 1.9 2.8.1"/><path fill="#F42B75" d="M862.7 29.5c-.1 1.2 1.8 1.3 1.9.1 0-1.2-1.9-1.3-1.9-.1"/><path fill="#FFD336" d="M782.6 34.7c-.1 1.2 1.8 1.3 1.9.1s-1.8-1.3-1.9-.1"/><path fill="#3CA8F1" d="M1135.7 69.9c.1-1.8-2.7-1.9-2.8-.1s2.7 1.9 2.8.1M829.4 5.1c-.1 1.8 2.7 1.9 2.8.1s-2.7-1.9-2.8-.1M1020 27c-.1 1.2 1.8 1.3 1.9.1 0-1.2-1.8-1.3-1.9-.1"/><path fill="#F42B75" d="M1005.4 35.5c-.1 1.2 1.8 1.3 1.9.1s-1.8-1.3-1.9-.1M950.8 25c-.1 1.2 1.8 1.3 1.9.1s-1.8-1.3-1.9-.1"/><path fill="#FF639E" d="M994.9 44.7c-.1 1.2 1.8 1.3 1.9.1s-1.8-1.3-1.9-.1"/><path fill="#F42B75" d="M1183.9 20.4c.1-1.2-1.8-1.3-1.9-.1 0 1.2 1.8 1.3 1.9.1"/><path fill="#3CA8F1" d="m1080.8 1.3-.4-1-.6.9-1.1.1.7.9-.3 1.1 1.1-.4.9.6V2.3l.9-.7z"/><path fill="#00DDC8" d="m925.6 47.2-.6-1.8-1.1 1.6h-2l1.2 1.6-.6 1.8 1.9-.6 1.6 1.1-.1-2 1.6-1.1zm203.8-1.1.7 1.2.5-1.2 1.3-.3-1-.9.2-1.3-1.2.7-1.2-.6.3 1.3-.9 1z"/><path fill="#F42B75" d="M1155.9 32.6c.4 1 1.3 1.5 2.4 1.4 1-.1 2-.4 2.8.4-.1-.1.2-1 .2-1.1s.2-1 .2-1.1c-.8-.8-1.8-.5-2.8-.4-1.1.1-2-.4-2.4-1.4.1.2-.1.9-.2 1.1s-.3.8-.2 1.1"/><path fill="#00DDC8" d="M1097.8 57c.2-.3 1-.9 1.1-1.2.3-1.6-.4-2.9-1.8-3.7-1.3-.7-2.8-1.1-3.2-2.7 0 .2-1 1.1-1.1 1.2-.1.2-1.1 1-1.1 1.2.3 1.6 1.9 2 3.2 2.7 1.4.8 2.1 2 1.8 3.7.1-.3.8-.9 1.1-1.2"/><path fill="#FF639E" d="M1190.3 55.4c-.1 0-1.5.3-1.6.4-.3 1.9.9 3.8 2.7 4.5.4.1 1.2-.3 1.6-.3.3-.1 1.2-.5 1.6-.4-1.9-.6-3-2.5-2.7-4.5-.1.1-1.5.3-1.6.3"/><path fill="#F42B75" d="M1213.4 83.9c-.2-1.8-3-1.5-2.8.3s3 1.5 2.8-.3m-6.9-38.4c-.2-1.8-3-1.5-2.8.3s3 1.5 2.8-.3"/><path fill="#FF639E" d="m1163.9 63.2-.9-1.6-.7 1.7-1.8.4 1.4 1.2-.2 1.8 1.6-.9 1.7.7-.5-1.8 1.3-1.3z"/><path fill="#FFD336" d="M987.7 25.6c.3-.1 1.1-.1 1.4-.3 1-.9 1.2-2.2.6-3.4-.5-1.1-1.4-2.2-.8-3.4-.1.1-1.2.2-1.4.3-.2 0-1.3.1-1.4.3-.6 1.3.3 2.3.8 3.4.6 1.2.4 2.5-.6 3.4.3-.3 1.1-.3 1.4-.3"/></svg>